<svg width="25" height="25" viewBox="0 0 25 25" stroke-width="2" stroke-linecap="round" stroke-linejoin="round" class="fill-charcoal-200 stroke-charcoal-900 dark:fill-charcoal-700 dark:stroke-charcoal-200">
  <g class="dark:opacity-0">
    <path d="M15 12a3 3 0 1 1-6 0 3 3 0 0 1 6 0Z"></path>
    <path d="M12 4v.01M17.66 6.345l-.007.007M20.005 12.005h-.01M17.66 17.665l-.007-.007M12 20.01V20M6.34 17.665l.007-.007M3.995 12.005h.01M6.34 6.344l.007.007" fill="none"></path>
  </g>
  <g class="opacity-0 dark:opacity-100">
    <path d="M16 12a4 4 0 1 1-8 0 4 4 0 0 1 8 0Z"></path>
    <path d="M12 3v1M18.66 5.345l-.828.828M21.005 12.005h-1M18.66 18.665l-.828-.828M12 21.01V20M5.34 18.666l.835-.836M2.995 12.005h1.01M5.34 5.344l.835.836" fill="none"></path>
  </g>
</svg>
