<svg viewBox="0 0 60 60" preserveAspectRatio="xMidYMid meet" focusable="false" style="pointer-events: none; display: block; width: 100%; height: 100%;"><g><g fill="none" fill-rule="evenodd"><circle fill="#CE2E2D" cx="30" cy="30" r="30"></circle><g fill="#FFF"><path d="M17.8 31.9c1.2 0 2.4 0 3.5.4 1.4.5 2.5 1.4 2.5 3 0 2.7-3.3 3.4-5.4 3.4-2.1 0-5.4-.6-5.4-3.3 0-1.3.9-2.1 2-2.5-1-.3-1.8-.9-1.8-2s.8-1.8 1.8-2.1c-.4-.5-.6-1.2-.6-1.8 0-2.2 2-3.4 4.1-3.4.4 0 .9 0 1.3.2-.1-1.4 1.2-2.2 2.4-2.2 1.1 0 2.4.6 2.4 1.9 0 .6-.5 1.2-1.2 1.2-.5 0-.8-.3-.8-.8 0-.3.2-.5.5-.7-.2-.3-.5-.5-.9-.5-.8 0-1.2.7-1.2 1.5 1.1.6 1.7 1.8 1.7 3 0 2.3-2 3.6-4 3.6-.9 0-1.7-.2-2.4-.6-.3-.2-.6-.3-.7-.3-.5 0-.8.5-.8.9 0 1 1.5 1.1 2.2 1.1h.8zM21 27c0-1.3-1.2-2.2-2.5-2.2s-2.4.9-2.4 2.2c0 1.4 1.1 2.2 2.4 2.2 1.3 0 2.5-.8 2.5-2.2zm-5.1 6.8c-.6.3-1.1.8-1.1 1.5 0 .8.7 1.4 1.4 1.6.7.2 1.6.3 2.3.3 1.2 0 3.7-.3 3.7-2s-2.4-1.9-3.6-1.9c-.9.1-2 .2-2.7.5zM29.9 23.4c1.5 0 2.9.4 3.9 1.6.9 1.2 1.3 2.7 1.3 4.2 0 3.2-1.8 5.9-5.2 5.9-3.4 0-5-2.7-5-5.8 0-3.2 1.6-5.9 5-5.9zm0 10.2c2.6 0 3.5-2.3 3.5-4.5 0-1-.2-2.2-.8-3-.6-.9-1.5-1.2-2.6-1.2-1.2 0-2.1.4-2.7 1.4-.5.8-.7 2-.7 2.9 0 2.1.8 4.4 3.3 4.4zM41.8 23.4c1.5 0 2.9.4 3.9 1.6.9 1.2 1.3 2.7 1.3 4.2 0 3.2-1.8 5.9-5.2 5.9-3.4 0-5-2.7-5-5.8-.1-3.2 1.6-5.9 5-5.9zm0 10.2c2.6 0 3.5-2.3 3.5-4.5 0-1-.2-2.2-.8-3-.6-.9-1.5-1.2-2.6-1.2-1.2 0-2.1.4-2.7 1.4-.5.8-.7 2-.7 2.9 0 2.1.8 4.4 3.3 4.4z"></path><path d="M29.5 30.1c-.6 0-1.2.6-1.2 1.2 0 .7.6 1.2 1.2 1.2.7 0 1.2-.5 1.2-1.2 0-.6-.6-1.2-1.2-1.2zM41.1 30.1c-.7 0-1.2.6-1.2 1.2 0 .7.5 1.2 1.2 1.2.6 0 1.2-.5 1.2-1.2 0-.6-.5-1.2-1.2-1.2z"></path></g></g></g></svg>