<svg xmlns="http://www.w3.org/2000/svg" width="24" height="24" viewBox="0 0 24 24"><title>mail</title><path d="M3 7.921l8.427 5.899c.34.235.795.246 1.147 0L21 7.921V18c0 .272-.11.521-.295.705S20.272 19 20 19H4c-.272 0-.521-.11-.705-.295S3 18.272 3 18zM1 5.983V18c0 .828.34 1.579.88 2.12S3.172 21 4 21h16c.828 0 1.579-.34 2.12-.88S23 18.828 23 18V6.012v-.03c-.005-.821-.343-1.565-.88-2.102C21.579 3.34 20.828 3 20 3H4c-.828 0-1.579.34-2.12.88-.537.537-.875 1.281-.88 2.103zm19.894-.429L12 11.779 3.106 5.554c.048-.096.112-.183.188-.259C3.479 5.11 3.728 5 4 5h16c.272 0 .521.11.705.295.076.076.14.164.188.259z"/></svg>