<svg viewBox="0 0 60 60" preserveAspectRatio="xMidYMid meet" focusable="false" style="pointer-events: none; display: block; width: 100%; height: 100%;"><g><g fill="none" fill-rule="evenodd"><g fill-rule="nonzero"><circle fill="#FF8226" cx="30" cy="30" r="30"></circle><g transform="translate(16.000000, 16.000000)" fill="#FFFFFF"><path d="M0,15.2225809 L0,25.1910701 C0,26.7287731 1.26040471,27.9752991 2.81528027,27.9752991 C4.37015582,27.9752991 5.63056053,26.7287731 5.63056053,25.1910701 L5.63056053,9.9538317 C5.46855813,12.8905403 3.00985687,15.2225809 0,15.2225809" opacity="0.299999982"></path><path d="M27.7743298,0 C21.648207,0 16.6819432,4.91150508 16.6819432,10.9702166 L16.6819432,14.3849279 C16.6819432,12.8472249 17.942565,11.6006989 19.4974406,11.6006989 C21.052099,11.6006989 22.3125037,12.8472249 22.3125037,14.3849279 L22.3125037,15.8020911 C22.3125037,17.339794 23.5731256,18.5863201 25.1280011,18.5863201 C26.6828767,18.5863201 27.9432814,17.339794 27.9432814,15.8020911 L27.9432814,0.00218765537 C27.8870366,0.00131259322 27.8307918,0 27.7743298,0" opacity="0.299999982"></path><path d="M0,15.2860232 C3.00985687,15.2860232 5.46855813,12.9539825 5.63056053,10.017274 L5.63056053,7.4054322 C5.63056053,7.33367711 5.63425227,7.26279707 5.63968131,7.19257334 C5.74956497,5.75418993 6.96349714,4.62098444 8.4458408,4.62098444 C10.0007164,4.62098444 11.2611211,5.86751048 11.2611211,7.4054322 L11.2611211,18.2990809 C11.2615554,19.8363463 12.5217429,21.0826536 14.0764013,21.0826536 C15.6310597,21.0826536 16.8912473,19.8365651 16.8918988,18.2992997 L16.8918988,10.9702166 C16.8918988,4.91150508 21.8579454,0 27.9840683,0 L0,0 L0,15.2860232 Z" opacity="0.699999988"></path><path d="M0,15.2225809 L0,25.1910701 C0,26.7287731 1.26040471,27.9752991 2.81528027,27.9752991 C4.37015582,27.9752991 5.63056053,26.7287731 5.63056053,25.1910701 L5.63056053,9.9538317 C5.46855813,12.8905403 3.00985687,15.2225809 0,15.2225809" opacity="0.5"></path><path d="M27.7743298,0 C21.648207,0 16.6819432,4.91150508 16.6819432,10.9702166 L16.6819432,14.3849279 C16.6819432,12.8472249 17.942565,11.6006989 19.4974406,11.6006989 C21.052099,11.6006989 22.3125037,12.8472249 22.3125037,14.3849279 L22.3125037,15.8020911 C22.3125037,17.339794 23.5731256,18.5863201 25.1280011,18.5863201 C26.6828767,18.5863201 27.9432814,17.339794 27.9432814,15.8020911 L27.9432814,0.00218765537 C27.8870366,0.00131259322 27.8307918,0 27.7743298,0" opacity="0.5"></path><path d="M0,15.2860232 C3.00985687,15.2860232 5.46855813,12.9539825 5.63056053,10.017274 L5.63056053,7.4054322 C5.63056053,7.33367711 5.63425227,7.26279707 5.63968131,7.19257334 C5.74956497,5.75418993 6.96349714,4.62098444 8.4458408,4.62098444 C10.0007164,4.62098444 11.2611211,5.86751048 11.2611211,7.4054322 L11.2611211,18.2990809 C11.2615554,19.8363463 12.5217429,21.0826536 14.0764013,21.0826536 C15.6310597,21.0826536 16.8912473,19.8365651 16.8918988,18.2992997 L16.8918988,10.9702166 C16.8918988,4.91150508 21.8579454,0 27.9840683,0 L0,0 L0,15.2860232 Z"></path></g></g></g></g></svg>