<svg viewBox="0 0 60 60" preserveAspectRatio="xMidYMid meet" focusable="false" style="pointer-events: none; display: block; width: 100%; height: 100%;"><g><g fill-rule="nonzero" fill="none"><path d="M28.486325 59.9692983c-6.6364044-.569063-11.5630204-2.3269562-16.3219736-5.8239328C4.44376336 48.4721167 0 39.6467923 0 29.9869344 0 15.1115596 10.506778 2.79838844 25.2744118.36718043 31.302519-.62523147 37.978265.41644488 43.5623517 3.2208101 57.138627 10.0389054 63.3436513 25.7618627 58.2050226 40.3239688c-3.5279559 9.9977054-12.7897094 17.6177847-23.3910729 19.2449379-2.0856252.3201125-5.0651487.5086455-6.3276247.4003916z" fill-opacity=".87" fill="#000"></path><g fill="#FFF"><path d="M29.8428571 25.7285714c-1.3071428 0-2.5928571 0-3.8785714-.0071428-.0785714 0-.2071428-.1071429-.2357143-.1857143-.6071428-1.9428572-1.7142857-2.8214286-3.76428569-2.9571429-.95714285-.0642857-1.90714285-.0357143-2.80714285.3357143-.91428572.3785714-1.47857143 1.2285714-1.47857143 2.2071429 0 .5714285.26428571 1 .68571428 1.35.59285715.4857143 1.29285715.7571428 2.01428572.9571428C22.23571429 27.9428571 24.1 28.4214286 25.95 28.9571429c.9142857.2642857 1.8071429.6 2.5857143 1.1714285 1.1642857.8571429 1.8142857 2.0428572 2.0071428 3.45.2285715 1.6928572-.0142857 3.3142857-.9214285 4.8071429-.6714286 1.1-1.6285715 1.8571428-2.8071429 2.3285714-2.6285714 1.0642857-5.33571427 1.0714286-8.07142856.5357143-1.40714285-.2785714-2.66428571-.8714286-3.69285714-1.8928571-1.23571429-1.2142858-1.83571429-2.7214286-2-4.4214286-.01428571-.1642857-.02857143-.3285714-.04285714-.5285714h4.35c.17857143.5142857.30714285 1.0428571.53571428 1.5142857.4.8285714 1.12857143 1.2857143 1.98571429 1.5714285 1.7.5642858 3.39285717.5571429 5.05714287-.1214285C26.1 36.8928571 26.6214286 35.4285714 26 34.3928571c-.35-.5785714-.9214286-.9071428-1.5214286-1.2-1.54285711-.7428571-3.22142854-1.0642857-4.85714283-1.5142857-1.06428571-.2928571-2.12857143-.6-3.16428571-.9785714-1.5-.5571429-2.41428572-1.6785714-2.84285715-3.2071429-.5-1.7785714-.41428571-3.5071428.42857143-5.1714285.72857143-1.4285715 1.93571429-2.3 3.42142857-2.79285717 2.22142858-.72857143 4.49285715-.79285714 6.77142859-.37142857C25.75 19.43571429 27.1 20.0714286 28.1714286 21.2357143c.9571428 1.0214286 1.7857143 3.1571428 1.6714285 4.4928571z"></path><path d="M35.8428571 38.7571429c-.75-2.2785715-1.4857142-4.5642858-2.25-6.8357143-.1-.3-.0571428-.45.2-.6357143 1.8642858-1.3214286 3.7142858-2.6571429 5.5714286-3.9928572.1-.0714285.2-.1571428.3714286-.2857142h-7.7642857c-.0357143-.6071429-.0642857-1.1857143-.1142857-1.7642858-.2642858-3.2285714-1.7285715-5.68571424-4.6357143-7.21428567-.05-.02857143-.1-.05714286-.15-.09285714-.0071429-.00714286-.0142857-.01428572-.0571429-.06428572.85-2.57857143 1.7-5.17857143 2.5857143-7.87142857.3428571 1.05.6571429 2.00714286.9714286 2.97142857 1.1714285 3.59285714 2.3428571 7.18571433 3.5 10.78571433.0857143.2714285.2571428.25.4642857.25h14.4357143c-.1571429.1285714-.2428572.2-.3285715.2571428-3.7714285 2.7285714-7.5357142 5.4571429-11.3142857 8.1714286-.2428571.1785714-.2928571.3214286-.2.6142857 1.45 4.4071429 2.8857143 8.8142857 4.3214286 13.2214286.0357143.1071428.0642857.2214285.1357143.4285714C38.1571429 44.2214286 34.8071429 41.7928571 31.5 39.4c.3714286-.9714286.7357143-1.9142857 1.1071429-2.8857143 1.0428571.75 2.1214285 1.5214286 3.2 2.3 0-.0142857.0142857-.0357143.0357142-.0571428z"></path></g></g></g></svg>